<svg width="224" height="505" viewBox="0 0 224 505" fill="none" xmlns="http://www.w3.org/2000/svg">
<mask id="path-1-outside-1_1_17" maskUnits="userSpaceOnUse" x="0.208984" y="-0.411011" width="224" height="322" fill="black">
<rect fill="white" x="0.208984" y="-0.411011" width="224" height="322"/>
<path fill-rule="evenodd" clip-rule="evenodd" d="M157.142 22.167C150.68 26.099 140.811 32.1039 127.448 33.922C119.2 35.0443 114.318 37.8427 111.369 41.2972C108.377 44.8036 106.757 49.7103 106.483 56.2223C106.255 61.6549 106.97 67.7868 108.316 74.4129C109.629 74.3263 110.989 74.3561 112.389 74.5019C132.033 76.5473 146.234 70.1756 154.813 60.2756C163.478 50.2775 166.919 36.1012 163.828 21.6204C163.551 20.3238 163.277 19.4484 163.051 18.8761C162.22 19.2145 161.127 19.7908 159.619 20.6761C158.858 21.1228 158.032 21.6252 157.142 22.167ZM110.964 85.4155C111.058 85.4236 111.154 85.4327 111.25 85.4427C133.994 87.811 151.901 80.4329 163.126 67.4795C174.266 54.6242 178.325 36.8437 174.586 19.3243C174.025 16.6945 173.248 14.2582 172.017 12.2904C170.691 10.1697 168.7 8.4037 165.921 7.80115C163.402 7.25503 161.064 7.86045 159.334 8.5186C157.562 9.19268 155.749 10.1929 154.052 11.1889C153.164 11.7096 152.252 12.2606 151.311 12.8293C144.81 16.7582 136.908 21.5336 125.966 23.0224C115.839 24.4003 108.167 28.1047 103.002 34.1563C97.8818 40.1562 95.8295 47.7588 95.493 55.76C95.2016 62.6909 96.1898 70.3635 97.9056 78.3502C97.4378 78.7263 96.9846 79.1291 96.5466 79.5585C92.6465 83.3828 90.5181 88.7758 89.4248 94.5385C87.2445 106.031 88.7245 121.493 92.0525 137.44C95.0901 151.996 99.8136 167.604 105.288 181.932C103.397 181.859 101.813 181.512 100.47 180.995C97.9998 180.043 95.9094 178.351 94.0577 175.858C90.1637 170.617 87.81 162.555 85.749 153.067C85.2908 150.959 84.8458 148.766 84.3947 146.544C82.9357 139.355 81.4138 131.857 79.1822 125.886C77.6896 121.893 75.6843 117.983 72.7167 115.026C69.5864 111.908 65.5481 110.025 60.6264 110.025C48.1093 110.025 39.8095 103.51 32.8604 98.0552C31.9981 97.3783 31.1566 96.7178 30.3304 96.088C28.59 94.7615 26.541 93.2912 24.4264 92.4342C22.1369 91.5064 18.9249 90.9849 15.8175 92.9395C13.1589 94.6117 11.6949 97.4617 10.736 100.111C9.71659 102.927 8.89688 106.601 8.17072 111.16C5.73422 126.456 7.72718 140.142 16.4547 151.053C24.8359 161.531 38.6961 168.513 58.0216 172.519C65.3074 179.506 71.5249 190.103 76.7151 202.828C82.1231 216.087 86.2341 231.199 89.3071 245.916C95.4651 275.407 97.3201 302.639 97.3201 308.911C97.3201 311.949 99.7826 314.411 102.82 314.411C105.858 314.411 108.32 311.949 108.32 308.911C108.32 301.797 106.369 273.809 100.075 243.668C96.922 228.568 92.6459 212.76 86.9005 198.674C81.1896 184.672 73.8419 171.905 64.3002 163.34L63.1724 162.328L61.6852 162.036C42.7519 158.322 31.33 152.04 25.0448 144.182C18.8842 136.48 16.8987 126.294 19.0338 112.89C19.7212 108.574 20.4114 105.7 21.0794 103.855C21.1711 103.601 21.2577 103.381 21.3378 103.19C21.9168 103.552 22.6718 104.082 23.6622 104.836C24.3537 105.364 25.1082 105.964 25.9272 106.615C32.7523 112.042 44.0497 121.025 60.6264 121.025C62.4586 121.025 63.754 121.624 64.9531 122.819C66.3147 124.176 67.6345 126.409 68.8785 129.737C70.7778 134.819 72.0473 141.06 73.4607 148.009C73.9462 150.396 74.4488 152.867 74.9997 155.403C77.0334 164.764 79.7493 175.044 85.2277 182.418C88.0623 186.234 91.7339 189.418 96.5174 191.26C100.447 192.773 104.83 193.266 109.667 192.745C114.463 203.917 119.607 213.801 124.57 221.078C123.367 226.103 122.34 231.238 121.461 236.351C118.397 254.163 117.029 272.321 116.422 285.977C116.118 292.818 116.004 298.555 115.966 302.589C115.947 304.607 115.947 306.2 115.952 307.293C115.955 307.84 115.958 308.262 115.961 308.55C115.963 308.694 115.964 308.804 115.965 308.88L115.967 308.967L115.967 308.998C115.967 309 115.967 309.002 121.466 308.911L115.967 309.002C116.017 312.039 118.52 314.46 121.557 314.41C124.594 314.36 127.016 311.857 126.966 308.82L126.964 308.73C126.963 308.665 126.962 308.565 126.961 308.432C126.958 308.167 126.954 307.767 126.952 307.244C126.947 306.198 126.947 304.656 126.966 302.692C127.003 298.765 127.114 293.158 127.411 286.466C128.007 273.058 129.346 255.402 132.301 238.215C132.744 235.641 133.221 233.09 133.734 230.577C139.273 234.187 145.914 235.821 152.696 236.005C162.765 236.28 173.693 233.418 183.505 228.525C193.326 223.627 202.419 216.501 208.62 207.838C214.854 199.132 218.313 188.62 216.139 177.388C215.436 173.752 214.808 170.89 214.169 168.76C213.848 167.692 213.478 166.65 213.02 165.717C212.584 164.83 211.895 163.674 210.764 162.732C209.463 161.648 207.797 161.037 205.984 161.148C204.414 161.245 203.183 161.858 202.453 162.289C201.31 162.964 200.077 164.031 199.197 164.794C199.061 164.912 198.934 165.022 198.817 165.122C196.659 166.97 194.108 168.997 190.335 170.23C186.606 171.449 181.226 172.03 173.351 170.093C165.451 168.149 158.269 169.151 151.996 172.608C145.867 175.986 140.992 181.489 137.079 187.935C133.761 193.401 130.985 199.798 128.656 206.71C125.887 201.742 123.083 196.004 120.363 189.767C124.701 187.552 127.924 184.212 129.972 179.847C132.871 173.666 133.063 166.143 132.113 158.498C130.491 145.441 125.126 129.43 119.854 113.698C118.971 111.062 118.09 108.435 117.231 105.831C114.912 98.8063 112.741 91.9478 110.964 85.4155ZM101.423 92.1538C100.959 93.4136 100.555 94.8847 100.232 96.5888C98.4657 105.899 99.5723 119.628 102.821 135.193C105.883 149.869 110.694 165.486 116.151 179.531C118.025 178.38 119.21 176.887 120.013 175.176C121.599 171.794 122.055 166.759 121.197 159.854C119.724 147.994 114.789 133.242 109.484 117.383C108.59 114.71 107.685 112.006 106.785 109.279C104.921 103.633 103.071 97.8758 101.423 92.1538ZM136.534 218.666C140.277 222.672 145.915 224.817 152.995 225.009C160.899 225.225 170.041 222.947 178.596 218.681C187.142 214.419 194.715 208.365 199.676 201.435C204.606 194.55 206.807 187.056 205.34 179.478C204.979 177.616 204.661 176.077 204.373 174.81C201.933 176.769 198.488 179.138 193.751 180.686C187.822 182.624 180.326 183.137 170.723 180.774C165.376 179.458 161.042 180.182 157.305 182.242C153.424 184.381 149.794 188.186 146.482 193.643C142.414 200.345 139.143 209.002 136.534 218.666ZM203.11 170.498C203.11 170.497 203.116 170.507 203.127 170.529C203.115 170.509 203.11 170.498 203.11 170.498Z"/>
</mask>
<path fill-rule="evenodd" clip-rule="evenodd" d="M157.142 22.167C150.68 26.099 140.811 32.1039 127.448 33.922C119.2 35.0443 114.318 37.8427 111.369 41.2972C108.377 44.8036 106.757 49.7103 106.483 56.2223C106.255 61.6549 106.97 67.7868 108.316 74.4129C109.629 74.3263 110.989 74.3561 112.389 74.5019C132.033 76.5473 146.234 70.1756 154.813 60.2756C163.478 50.2775 166.919 36.1012 163.828 21.6204C163.551 20.3238 163.277 19.4484 163.051 18.8761C162.22 19.2145 161.127 19.7908 159.619 20.6761C158.858 21.1228 158.032 21.6252 157.142 22.167ZM110.964 85.4155C111.058 85.4236 111.154 85.4327 111.25 85.4427C133.994 87.811 151.901 80.4329 163.126 67.4795C174.266 54.6242 178.325 36.8437 174.586 19.3243C174.025 16.6945 173.248 14.2582 172.017 12.2904C170.691 10.1697 168.7 8.4037 165.921 7.80115C163.402 7.25503 161.064 7.86045 159.334 8.5186C157.562 9.19268 155.749 10.1929 154.052 11.1889C153.164 11.7096 152.252 12.2606 151.311 12.8293C144.81 16.7582 136.908 21.5336 125.966 23.0224C115.839 24.4003 108.167 28.1047 103.002 34.1563C97.8818 40.1562 95.8295 47.7588 95.493 55.76C95.2016 62.6909 96.1898 70.3635 97.9056 78.3502C97.4378 78.7263 96.9846 79.1291 96.5466 79.5585C92.6465 83.3828 90.5181 88.7758 89.4248 94.5385C87.2445 106.031 88.7245 121.493 92.0525 137.44C95.0901 151.996 99.8136 167.604 105.288 181.932C103.397 181.859 101.813 181.512 100.47 180.995C97.9998 180.043 95.9094 178.351 94.0577 175.858C90.1637 170.617 87.81 162.555 85.749 153.067C85.2908 150.959 84.8458 148.766 84.3947 146.544C82.9357 139.355 81.4138 131.857 79.1822 125.886C77.6896 121.893 75.6843 117.983 72.7167 115.026C69.5864 111.908 65.5481 110.025 60.6264 110.025C48.1093 110.025 39.8095 103.51 32.8604 98.0552C31.9981 97.3783 31.1566 96.7178 30.3304 96.088C28.59 94.7615 26.541 93.2912 24.4264 92.4342C22.1369 91.5064 18.9249 90.9849 15.8175 92.9395C13.1589 94.6117 11.6949 97.4617 10.736 100.111C9.71659 102.927 8.89688 106.601 8.17072 111.16C5.73422 126.456 7.72718 140.142 16.4547 151.053C24.8359 161.531 38.6961 168.513 58.0216 172.519C65.3074 179.506 71.5249 190.103 76.7151 202.828C82.1231 216.087 86.2341 231.199 89.3071 245.916C95.4651 275.407 97.3201 302.639 97.3201 308.911C97.3201 311.949 99.7826 314.411 102.82 314.411C105.858 314.411 108.32 311.949 108.32 308.911C108.32 301.797 106.369 273.809 100.075 243.668C96.922 228.568 92.6459 212.76 86.9005 198.674C81.1896 184.672 73.8419 171.905 64.3002 163.34L63.1724 162.328L61.6852 162.036C42.7519 158.322 31.33 152.04 25.0448 144.182C18.8842 136.48 16.8987 126.294 19.0338 112.89C19.7212 108.574 20.4114 105.7 21.0794 103.855C21.1711 103.601 21.2577 103.381 21.3378 103.19C21.9168 103.552 22.6718 104.082 23.6622 104.836C24.3537 105.364 25.1082 105.964 25.9272 106.615C32.7523 112.042 44.0497 121.025 60.6264 121.025C62.4586 121.025 63.754 121.624 64.9531 122.819C66.3147 124.176 67.6345 126.409 68.8785 129.737C70.7778 134.819 72.0473 141.06 73.4607 148.009C73.9462 150.396 74.4488 152.867 74.9997 155.403C77.0334 164.764 79.7493 175.044 85.2277 182.418C88.0623 186.234 91.7339 189.418 96.5174 191.26C100.447 192.773 104.83 193.266 109.667 192.745C114.463 203.917 119.607 213.801 124.57 221.078C123.367 226.103 122.34 231.238 121.461 236.351C118.397 254.163 117.029 272.321 116.422 285.977C116.118 292.818 116.004 298.555 115.966 302.589C115.947 304.607 115.947 306.2 115.952 307.293C115.955 307.84 115.958 308.262 115.961 308.55C115.963 308.694 115.964 308.804 115.965 308.88L115.967 308.967L115.967 308.998C115.967 309 115.967 309.002 121.466 308.911L115.967 309.002C116.017 312.039 118.52 314.46 121.557 314.41C124.594 314.36 127.016 311.857 126.966 308.82L126.964 308.73C126.963 308.665 126.962 308.565 126.961 308.432C126.958 308.167 126.954 307.767 126.952 307.244C126.947 306.198 126.947 304.656 126.966 302.692C127.003 298.765 127.114 293.158 127.411 286.466C128.007 273.058 129.346 255.402 132.301 238.215C132.744 235.641 133.221 233.09 133.734 230.577C139.273 234.187 145.914 235.821 152.696 236.005C162.765 236.28 173.693 233.418 183.505 228.525C193.326 223.627 202.419 216.501 208.62 207.838C214.854 199.132 218.313 188.62 216.139 177.388C215.436 173.752 214.808 170.89 214.169 168.76C213.848 167.692 213.478 166.65 213.02 165.717C212.584 164.83 211.895 163.674 210.764 162.732C209.463 161.648 207.797 161.037 205.984 161.148C204.414 161.245 203.183 161.858 202.453 162.289C201.31 162.964 200.077 164.031 199.197 164.794C199.061 164.912 198.934 165.022 198.817 165.122C196.659 166.97 194.108 168.997 190.335 170.23C186.606 171.449 181.226 172.03 173.351 170.093C165.451 168.149 158.269 169.151 151.996 172.608C145.867 175.986 140.992 181.489 137.079 187.935C133.761 193.401 130.985 199.798 128.656 206.71C125.887 201.742 123.083 196.004 120.363 189.767C124.701 187.552 127.924 184.212 129.972 179.847C132.871 173.666 133.063 166.143 132.113 158.498C130.491 145.441 125.126 129.43 119.854 113.698C118.971 111.062 118.09 108.435 117.231 105.831C114.912 98.8063 112.741 91.9478 110.964 85.4155ZM101.423 92.1538C100.959 93.4136 100.555 94.8847 100.232 96.5888C98.4657 105.899 99.5723 119.628 102.821 135.193C105.883 149.869 110.694 165.486 116.151 179.531C118.025 178.38 119.21 176.887 120.013 175.176C121.599 171.794 122.055 166.759 121.197 159.854C119.724 147.994 114.789 133.242 109.484 117.383C108.59 114.71 107.685 112.006 106.785 109.279C104.921 103.633 103.071 97.8758 101.423 92.1538ZM136.534 218.666C140.277 222.672 145.915 224.817 152.995 225.009C160.899 225.225 170.041 222.947 178.596 218.681C187.142 214.419 194.715 208.365 199.676 201.435C204.606 194.55 206.807 187.056 205.34 179.478C204.979 177.616 204.661 176.077 204.373 174.81C201.933 176.769 198.488 179.138 193.751 180.686C187.822 182.624 180.326 183.137 170.723 180.774C165.376 179.458 161.042 180.182 157.305 182.242C153.424 184.381 149.794 188.186 146.482 193.643C142.414 200.345 139.143 209.002 136.534 218.666ZM203.11 170.498C203.11 170.497 203.116 170.507 203.127 170.529C203.115 170.509 203.11 170.498 203.11 170.498Z" fill="#4A6B57"/>
<path fill-rule="evenodd" clip-rule="evenodd" d="M157.142 22.167C150.68 26.099 140.811 32.1039 127.448 33.922C119.2 35.0443 114.318 37.8427 111.369 41.2972C108.377 44.8036 106.757 49.7103 106.483 56.2223C106.255 61.6549 106.97 67.7868 108.316 74.4129C109.629 74.3263 110.989 74.3561 112.389 74.5019C132.033 76.5473 146.234 70.1756 154.813 60.2756C163.478 50.2775 166.919 36.1012 163.828 21.6204C163.551 20.3238 163.277 19.4484 163.051 18.8761C162.22 19.2145 161.127 19.7908 159.619 20.6761C158.858 21.1228 158.032 21.6252 157.142 22.167ZM110.964 85.4155C111.058 85.4236 111.154 85.4327 111.25 85.4427C133.994 87.811 151.901 80.4329 163.126 67.4795C174.266 54.6242 178.325 36.8437 174.586 19.3243C174.025 16.6945 173.248 14.2582 172.017 12.2904C170.691 10.1697 168.7 8.4037 165.921 7.80115C163.402 7.25503 161.064 7.86045 159.334 8.5186C157.562 9.19268 155.749 10.1929 154.052 11.1889C153.164 11.7096 152.252 12.2606 151.311 12.8293C144.81 16.7582 136.908 21.5336 125.966 23.0224C115.839 24.4003 108.167 28.1047 103.002 34.1563C97.8818 40.1562 95.8295 47.7588 95.493 55.76C95.2016 62.6909 96.1898 70.3635 97.9056 78.3502C97.4378 78.7263 96.9846 79.1291 96.5466 79.5585C92.6465 83.3828 90.5181 88.7758 89.4248 94.5385C87.2445 106.031 88.7245 121.493 92.0525 137.44C95.0901 151.996 99.8136 167.604 105.288 181.932C103.397 181.859 101.813 181.512 100.47 180.995C97.9998 180.043 95.9094 178.351 94.0577 175.858C90.1637 170.617 87.81 162.555 85.749 153.067C85.2908 150.959 84.8458 148.766 84.3947 146.544C82.9357 139.355 81.4138 131.857 79.1822 125.886C77.6896 121.893 75.6843 117.983 72.7167 115.026C69.5864 111.908 65.5481 110.025 60.6264 110.025C48.1093 110.025 39.8095 103.51 32.8604 98.0552C31.9981 97.3783 31.1566 96.7178 30.3304 96.088C28.59 94.7615 26.541 93.2912 24.4264 92.4342C22.1369 91.5064 18.9249 90.9849 15.8175 92.9395C13.1589 94.6117 11.6949 97.4617 10.736 100.111C9.71659 102.927 8.89688 106.601 8.17072 111.16C5.73422 126.456 7.72718 140.142 16.4547 151.053C24.8359 161.531 38.6961 168.513 58.0216 172.519C65.3074 179.506 71.5249 190.103 76.7151 202.828C82.1231 216.087 86.2341 231.199 89.3071 245.916C95.4651 275.407 97.3201 302.639 97.3201 308.911C97.3201 311.949 99.7826 314.411 102.82 314.411C105.858 314.411 108.32 311.949 108.32 308.911C108.32 301.797 106.369 273.809 100.075 243.668C96.922 228.568 92.6459 212.76 86.9005 198.674C81.1896 184.672 73.8419 171.905 64.3002 163.34L63.1724 162.328L61.6852 162.036C42.7519 158.322 31.33 152.04 25.0448 144.182C18.8842 136.48 16.8987 126.294 19.0338 112.89C19.7212 108.574 20.4114 105.7 21.0794 103.855C21.1711 103.601 21.2577 103.381 21.3378 103.19C21.9168 103.552 22.6718 104.082 23.6622 104.836C24.3537 105.364 25.1082 105.964 25.9272 106.615C32.7523 112.042 44.0497 121.025 60.6264 121.025C62.4586 121.025 63.754 121.624 64.9531 122.819C66.3147 124.176 67.6345 126.409 68.8785 129.737C70.7778 134.819 72.0473 141.06 73.4607 148.009C73.9462 150.396 74.4488 152.867 74.9997 155.403C77.0334 164.764 79.7493 175.044 85.2277 182.418C88.0623 186.234 91.7339 189.418 96.5174 191.26C100.447 192.773 104.83 193.266 109.667 192.745C114.463 203.917 119.607 213.801 124.57 221.078C123.367 226.103 122.34 231.238 121.461 236.351C118.397 254.163 117.029 272.321 116.422 285.977C116.118 292.818 116.004 298.555 115.966 302.589C115.947 304.607 115.947 306.2 115.952 307.293C115.955 307.84 115.958 308.262 115.961 308.55C115.963 308.694 115.964 308.804 115.965 308.88L115.967 308.967L115.967 308.998C115.967 309 115.967 309.002 121.466 308.911L115.967 309.002C116.017 312.039 118.52 314.46 121.557 314.41C124.594 314.36 127.016 311.857 126.966 308.82L126.964 308.73C126.963 308.665 126.962 308.565 126.961 308.432C126.958 308.167 126.954 307.767 126.952 307.244C126.947 306.198 126.947 304.656 126.966 302.692C127.003 298.765 127.114 293.158 127.411 286.466C128.007 273.058 129.346 255.402 132.301 238.215C132.744 235.641 133.221 233.09 133.734 230.577C139.273 234.187 145.914 235.821 152.696 236.005C162.765 236.28 173.693 233.418 183.505 228.525C193.326 223.627 202.419 216.501 208.62 207.838C214.854 199.132 218.313 188.62 216.139 177.388C215.436 173.752 214.808 170.89 214.169 168.76C213.848 167.692 213.478 166.65 213.02 165.717C212.584 164.83 211.895 163.674 210.764 162.732C209.463 161.648 207.797 161.037 205.984 161.148C204.414 161.245 203.183 161.858 202.453 162.289C201.31 162.964 200.077 164.031 199.197 164.794C199.061 164.912 198.934 165.022 198.817 165.122C196.659 166.97 194.108 168.997 190.335 170.23C186.606 171.449 181.226 172.03 173.351 170.093C165.451 168.149 158.269 169.151 151.996 172.608C145.867 175.986 140.992 181.489 137.079 187.935C133.761 193.401 130.985 199.798 128.656 206.71C125.887 201.742 123.083 196.004 120.363 189.767C124.701 187.552 127.924 184.212 129.972 179.847C132.871 173.666 133.063 166.143 132.113 158.498C130.491 145.441 125.126 129.43 119.854 113.698C118.971 111.062 118.09 108.435 117.231 105.831C114.912 98.8063 112.741 91.9478 110.964 85.4155ZM101.423 92.1538C100.959 93.4136 100.555 94.8847 100.232 96.5888C98.4657 105.899 99.5723 119.628 102.821 135.193C105.883 149.869 110.694 165.486 116.151 179.531C118.025 178.38 119.21 176.887 120.013 175.176C121.599 171.794 122.055 166.759 121.197 159.854C119.724 147.994 114.789 133.242 109.484 117.383C108.59 114.71 107.685 112.006 106.785 109.279C104.921 103.633 103.071 97.8758 101.423 92.1538ZM136.534 218.666C140.277 222.672 145.915 224.817 152.995 225.009C160.899 225.225 170.041 222.947 178.596 218.681C187.142 214.419 194.715 208.365 199.676 201.435C204.606 194.55 206.807 187.056 205.34 179.478C204.979 177.616 204.661 176.077 204.373 174.81C201.933 176.769 198.488 179.138 193.751 180.686C187.822 182.624 180.326 183.137 170.723 180.774C165.376 179.458 161.042 180.182 157.305 182.242C153.424 184.381 149.794 188.186 146.482 193.643C142.414 200.345 139.143 209.002 136.534 218.666ZM203.11 170.498C203.11 170.497 203.116 170.507 203.127 170.529C203.115 170.509 203.11 170.498 203.11 170.498Z" stroke="#B4C5CA" stroke-width="14" stroke-linecap="round" mask="url(#path-1-outside-1_1_17)"/>
<path d="M202.534 304.416H21.4597V484.411C21.4597 495.457 30.414 504.411 41.4597 504.411H182.534C193.58 504.411 202.534 495.457 202.534 484.411V304.416Z" fill="#7E807F"/>
<path d="M47.979 504.406H182.54C193.586 504.406 202.54 495.451 202.54 484.406V304.411H135.969C128.115 332.791 117.76 363.793 104.001 396.473C86.3915 438.296 66.8158 474.292 47.979 504.406Z" fill="#5A5A59"/>
<path d="M126.059 504.406H182.534C193.58 504.406 202.534 495.451 202.534 484.406V365.737C194.796 382.858 186.208 400.573 176.665 418.743C160.083 450.306 142.93 478.847 126.059 504.406Z" fill="#343535"/>
<path d="M202.534 466.549H21.4597V484.406C21.4597 495.451 30.414 504.406 41.4597 504.406H182.534C193.58 504.406 202.534 495.451 202.534 484.406V466.549Z" fill="#232222"/>
<path d="M26.7703 325.864C30.481 325.864 32.2808 322.592 33.8751 319.709C35.3749 316.987 36.6692 314.637 39.1467 314.637C41.6242 314.637 42.9185 316.987 44.4184 319.709C46.0071 322.592 47.8123 325.864 51.523 325.864C55.2337 325.864 57.0391 322.592 58.6278 319.709C60.1276 316.987 61.4219 314.637 63.8994 314.637C66.377 314.637 67.6712 316.987 69.1711 319.709C70.7598 322.592 72.5652 325.864 76.2759 325.864C79.9866 325.864 81.792 322.592 83.3807 319.709C84.8805 316.987 86.1748 314.637 88.6523 314.637C91.1298 314.637 92.4241 316.987 93.924 319.709C95.5127 322.592 97.318 325.864 101.029 325.864C104.739 325.864 106.545 322.592 108.134 319.709C109.633 316.987 110.928 314.637 113.405 314.637C115.883 314.637 117.177 316.987 118.677 319.709C120.266 322.592 122.071 325.864 125.782 325.864C129.492 325.864 131.298 322.592 132.886 319.709C134.386 316.987 135.681 314.637 138.158 314.637C140.636 314.637 141.93 316.987 143.43 319.709C145.018 322.592 146.824 325.864 150.534 325.864C154.245 325.864 156.05 322.592 157.639 319.709C159.139 316.987 160.433 314.637 162.911 314.637C165.388 314.637 166.683 316.987 168.182 319.709C169.771 322.592 171.577 325.864 175.287 325.864C178.998 325.864 180.803 322.592 182.392 319.709C183.892 316.987 185.186 314.637 187.664 314.637C190.141 314.637 191.435 316.987 192.941 319.709C194.53 322.592 196.335 325.864 200.046 325.864C200.99 325.864 201.807 325.653 202.529 325.292V322.776C201.829 323.398 201.029 323.775 200.046 323.775C197.568 323.775 196.274 321.426 194.768 318.704C193.18 315.821 191.374 312.549 187.664 312.549C183.953 312.549 182.148 315.821 180.559 318.704C179.059 321.426 177.765 323.775 175.287 323.775C172.81 323.775 171.515 321.426 170.016 318.704C168.427 315.821 166.621 312.549 162.911 312.549C159.2 312.549 157.395 315.821 155.806 318.704C154.306 321.426 153.012 323.775 150.534 323.775C148.057 323.775 146.763 321.426 145.263 318.704C143.674 315.821 141.869 312.549 138.158 312.549C134.447 312.549 132.648 315.821 131.053 318.704C129.553 321.426 128.259 323.775 125.782 323.775C123.304 323.775 122.01 321.426 120.51 318.704C118.921 315.821 117.116 312.549 113.405 312.549C109.694 312.549 107.889 315.821 106.3 318.704C104.801 321.426 103.506 323.775 101.029 323.775C98.5512 323.775 97.257 321.426 95.7571 318.704C94.1684 315.821 92.363 312.549 88.6523 312.549C84.9416 312.549 83.1362 315.821 81.5475 318.704C80.0477 321.426 78.7534 323.775 76.2759 323.775C73.7984 323.775 72.5041 321.426 71.0042 318.704C69.4155 315.821 67.6101 312.549 63.8994 312.549C60.1887 312.549 58.3834 315.821 56.7946 318.704C55.2948 321.426 54.0005 323.775 51.523 323.775C49.0455 323.775 47.7512 321.426 46.2514 318.704C44.6627 315.821 42.8574 312.549 39.1467 312.549C35.436 312.549 33.6306 315.821 32.0419 318.704C30.5421 321.426 29.2478 323.775 26.7703 323.775C24.2928 323.775 22.9985 321.426 21.4986 318.704C21.4875 318.682 21.4764 318.659 21.4597 318.637V322.681C22.7318 324.459 24.3372 325.864 26.7703 325.864Z" fill="#232222"/>
<path d="M26.7703 347.723C30.431 347.723 32.2196 344.479 33.7972 341.612C35.5526 338.429 36.7859 336.496 39.1467 336.496C41.5076 336.496 42.7407 338.429 44.4961 341.612C46.0737 344.473 47.8623 347.723 51.523 347.723C55.1837 347.723 56.9725 344.479 58.5501 341.612C60.3055 338.429 61.5386 336.496 63.8995 336.496C66.2603 336.496 67.4936 338.429 69.2489 341.612C70.8265 344.473 72.6152 347.723 76.2759 347.723C79.9366 347.723 81.7254 344.479 83.303 341.612C85.0583 338.429 86.2915 336.496 88.6523 336.496C91.0132 336.496 92.2465 338.429 94.0018 341.612C95.5794 344.473 97.3681 347.723 101.029 347.723C104.689 347.723 106.478 344.479 108.056 341.612C109.811 338.429 111.05 336.496 113.405 336.496C115.761 336.496 116.999 338.429 118.755 341.612C120.332 344.473 122.121 347.723 125.782 347.723C129.442 347.723 131.231 344.479 132.809 341.612C134.564 338.429 135.797 336.496 138.158 336.496C140.519 336.496 141.752 338.429 143.507 341.612C145.085 344.473 146.874 347.723 150.534 347.723C154.195 347.723 155.984 344.479 157.561 341.612C159.317 338.429 160.556 336.496 162.911 336.496C165.266 336.496 166.505 338.429 168.26 341.612C169.838 344.473 171.627 347.723 175.287 347.723C178.948 347.723 180.737 344.479 182.314 341.612C184.07 338.429 185.308 336.496 187.664 336.496C190.019 336.496 191.258 338.429 193.013 341.612C194.591 344.473 196.379 347.723 200.04 347.723C200.984 347.723 201.801 347.506 202.523 347.134V344.84C201.812 345.462 201.023 345.806 200.04 345.806C197.679 345.806 196.446 343.873 194.691 340.69C193.113 337.829 191.324 334.58 187.664 334.58C184.003 334.58 182.214 337.824 180.637 340.69C178.881 343.873 177.643 345.806 175.287 345.806C172.932 345.806 171.693 343.873 169.938 340.69C168.36 337.829 166.572 334.58 162.911 334.58C159.25 334.58 157.461 337.824 155.884 340.69C154.129 343.873 152.89 345.806 150.534 345.806C148.179 345.806 146.94 343.873 145.185 340.69C143.607 337.829 141.819 334.58 138.158 334.58C134.497 334.58 132.709 337.824 131.131 340.69C129.376 343.873 128.142 345.806 125.782 345.806C123.421 345.806 122.188 343.873 120.432 340.69C118.855 337.829 117.066 334.58 113.405 334.58C109.744 334.58 107.956 337.824 106.378 340.69C104.623 343.873 103.384 345.806 101.029 345.806C98.6735 345.806 97.4346 343.873 95.6793 340.69C94.1017 337.829 92.313 334.58 88.6523 334.58C84.9916 334.58 83.203 337.824 81.6254 340.69C79.87 343.873 78.6367 345.806 76.2759 345.806C73.915 345.806 72.6819 343.873 70.9265 340.69C69.3489 337.829 67.5602 334.58 63.8995 334.58C60.2387 334.58 58.4501 337.824 56.8725 340.69C55.1171 343.873 53.8839 345.806 51.523 345.806C49.1622 345.806 47.929 343.873 46.1737 340.69C44.5961 337.829 42.8074 334.58 39.1467 334.58C35.486 334.58 33.6972 337.824 32.1196 340.69C30.3643 343.873 29.1311 345.806 26.7703 345.806C24.4094 345.806 23.1929 343.901 21.4597 340.757V344.473C22.7262 346.278 24.3317 347.723 26.7703 347.723Z" fill="#232222"/>
<path d="M26.7703 369.581C30.381 369.581 32.153 366.359 33.7195 363.515C35.1805 360.86 36.5637 358.355 39.1467 358.355C41.7298 358.355 43.1073 360.86 44.5738 363.515C46.1403 366.359 47.9179 369.581 51.523 369.581C55.1282 369.581 56.9058 366.359 58.4723 363.515C59.9332 360.86 61.3164 358.355 63.8994 358.355C66.4825 358.355 67.8601 360.86 69.3266 363.515C70.8931 366.359 72.6707 369.581 76.2759 369.581C79.881 369.581 81.6586 366.359 83.2251 363.515C84.6861 360.86 86.0693 358.355 88.6523 358.355C91.2354 358.355 92.613 360.86 94.0795 363.515C95.646 366.359 97.4236 369.581 101.029 369.581C104.634 369.581 106.411 366.359 107.978 363.515C109.439 360.86 110.822 358.355 113.405 358.355C115.988 358.355 117.366 360.86 118.832 363.515C120.399 366.359 122.176 369.581 125.782 369.581C129.387 369.581 131.164 366.359 132.731 363.515C134.192 360.86 135.575 358.355 138.158 358.355C140.741 358.355 142.119 360.86 143.585 363.515C145.152 366.359 146.929 369.581 150.534 369.581C154.14 369.581 155.917 366.359 157.484 363.515C158.945 360.86 160.328 358.355 162.911 358.355C165.494 358.355 166.871 360.86 168.338 363.515C169.904 366.359 171.682 369.581 175.287 369.581C178.892 369.581 180.67 366.359 182.236 363.515C183.697 360.86 185.081 358.355 187.664 358.355C190.247 358.355 191.624 360.86 193.091 363.515C194.657 366.359 196.435 369.581 200.046 369.581C200.99 369.581 201.807 369.353 202.529 368.981V366.893C201.823 367.482 201.023 367.843 200.046 367.843C197.463 367.843 196.085 365.337 194.618 362.682C193.052 359.838 191.274 356.616 187.664 356.616C184.053 356.616 182.281 359.838 180.714 362.682C179.253 365.337 177.87 367.843 175.287 367.843C172.704 367.843 171.327 365.337 169.86 362.676C168.294 359.832 166.516 356.61 162.911 356.61C159.306 356.61 157.528 359.832 155.962 362.676C154.501 365.332 153.117 367.843 150.534 367.843C147.951 367.843 146.574 365.337 145.107 362.682C143.541 359.838 141.763 356.616 138.158 356.616C134.553 356.616 132.775 359.838 131.209 362.682C129.748 365.337 128.365 367.843 125.782 367.843C123.199 367.843 121.821 365.337 120.354 362.682C118.788 359.838 117.01 356.616 113.405 356.616C109.8 356.616 108.022 359.838 106.456 362.682C104.995 365.337 103.612 367.843 101.029 367.843C98.4457 367.843 97.0681 365.337 95.6016 362.682C94.0351 359.838 92.2575 356.616 88.6523 356.616C85.0472 356.616 83.2696 359.838 81.7031 362.682C80.2421 365.337 78.8589 367.843 76.2759 367.843C73.6928 367.843 72.3152 365.337 70.8487 362.682C69.2822 359.838 67.5046 356.616 63.8994 356.616C60.2943 356.616 58.5167 359.838 56.9502 362.682C55.4893 365.337 54.1061 367.843 51.523 367.843C48.94 367.843 47.5625 365.337 46.096 362.682C44.5295 359.838 42.7519 356.616 39.1467 356.616C35.5416 356.616 33.764 359.838 32.1975 362.682C30.7365 365.337 29.3533 367.843 26.7703 367.843C24.1872 367.843 22.8818 365.465 21.4597 362.888V366.271C22.7262 368.104 24.3261 369.581 26.7703 369.581Z" fill="#232222"/>
<path d="M26.7704 391.44C30.3256 391.44 32.092 388.241 33.6474 385.419C35.125 382.741 36.5194 380.208 39.1468 380.208C41.7743 380.208 43.1741 382.736 44.6462 385.419C46.2016 388.241 47.9624 391.44 51.5231 391.44C55.0839 391.44 56.8449 388.241 58.4002 385.419C59.8779 382.741 61.2721 380.208 63.8996 380.208C66.5271 380.208 67.927 382.736 69.3991 385.419C70.9544 388.241 72.7153 391.44 76.276 391.44C79.8367 391.44 81.5977 388.241 83.1531 385.419C84.6307 382.741 86.025 380.208 88.6525 380.208C91.2799 380.208 92.6797 382.736 94.1518 385.419C95.7072 388.241 97.4682 391.44 101.029 391.44C104.59 391.44 106.35 388.241 107.906 385.419C109.383 382.741 110.778 380.208 113.411 380.208C116.044 380.208 117.438 382.736 118.91 385.419C120.466 388.241 122.227 391.44 125.782 391.44C129.337 391.44 131.103 388.241 132.659 385.419C134.136 382.741 135.531 380.208 138.158 380.208C140.786 380.208 142.185 382.736 143.663 385.419C145.218 388.241 146.979 391.44 150.54 391.44C154.101 391.44 155.862 388.241 157.417 385.419C158.895 382.741 160.289 380.208 162.922 380.208C165.555 380.208 166.949 382.736 168.427 385.419C169.982 388.241 171.743 391.44 175.304 391.44C178.865 391.44 180.626 388.241 182.181 385.419C183.659 382.741 185.053 380.208 187.686 380.208C190.319 380.208 191.713 382.736 193.191 385.419C194.746 388.241 196.507 391.44 200.068 391.44C201.012 391.44 201.829 391.207 202.551 390.824V388.946C201.846 389.518 201.04 389.868 200.068 389.868C197.435 389.868 196.041 387.341 194.563 384.658C193.008 381.836 191.247 378.636 187.686 378.636C184.125 378.636 182.364 381.836 180.809 384.658C179.331 387.335 177.937 389.868 175.304 389.868C172.671 389.868 171.277 387.341 169.799 384.658C168.244 381.836 166.483 378.636 162.922 378.636C159.361 378.636 157.6 381.836 156.045 384.658C154.567 387.335 153.173 389.868 150.54 389.868C147.907 389.868 146.513 387.341 145.035 384.658C143.48 381.836 141.719 378.636 138.158 378.636C134.597 378.636 132.836 381.836 131.281 384.658C129.803 387.335 128.409 389.868 125.782 389.868C123.154 389.868 121.754 387.341 120.282 384.658C118.727 381.836 116.966 378.636 113.405 378.636C109.845 378.636 108.084 381.836 106.528 384.658C105.051 387.335 103.656 389.868 101.023 389.868C98.3903 389.868 96.996 387.341 95.5184 384.658C93.963 381.836 92.2021 378.636 88.6413 378.636C85.0806 378.636 83.3198 381.836 81.7644 384.658C80.2868 387.335 78.8924 389.868 76.2649 389.868C73.6374 389.868 72.2376 387.341 70.7656 384.658C69.2102 381.836 67.4492 378.636 63.8885 378.636C60.3277 378.636 58.5669 381.836 57.0115 384.658C55.5339 387.335 54.1397 389.868 51.5122 389.868C48.8847 389.868 47.4847 387.341 46.0127 384.658C44.4573 381.836 42.6964 378.636 39.1357 378.636C35.575 378.636 33.814 381.836 32.2586 384.658C30.781 387.335 29.3868 389.868 26.7593 389.868C24.1318 389.868 22.8541 387.552 21.4487 385.008V388.057C22.7153 389.918 24.3096 391.435 26.7593 391.435L26.7704 391.44Z" fill="#232222"/>
<path d="M26.7703 413.299C30.2754 413.299 31.9475 410.26 33.5695 407.327C35.0583 404.628 36.4637 402.072 39.1467 402.072C41.8298 402.072 43.235 404.622 44.7238 407.327C46.3403 410.266 48.0178 413.299 51.523 413.299C55.0282 413.299 56.7002 410.26 58.3223 407.327C59.811 404.628 61.2164 402.072 63.8995 402.072C66.5825 402.072 67.9879 404.622 69.4766 407.327C71.0931 410.266 72.7707 413.299 76.2759 413.299C79.7811 413.299 81.4531 410.26 83.0751 407.327C84.5639 404.628 85.9693 402.072 88.6523 402.072C91.3354 402.072 92.7408 404.622 94.2295 407.327C95.846 410.266 97.5236 413.299 101.029 413.299C104.534 413.299 106.206 410.26 107.828 407.327C109.317 404.628 110.722 402.072 113.405 402.072C116.088 402.072 117.494 404.622 118.982 407.327C120.599 410.266 122.276 413.299 125.782 413.299C129.287 413.299 130.959 410.26 132.581 407.327C134.07 404.628 135.475 402.072 138.158 402.072C140.841 402.072 142.246 404.622 143.735 407.327C145.352 410.266 147.029 413.299 150.534 413.299C154.04 413.299 155.712 410.26 157.334 407.327C158.822 404.628 160.228 402.072 162.911 402.072C165.594 402.072 166.999 404.622 168.488 407.327C170.104 410.266 171.782 413.299 175.287 413.299C178.792 413.299 180.47 410.26 182.087 407.327C183.575 404.628 184.981 402.072 187.664 402.072C190.347 402.072 191.752 404.622 193.241 407.327C194.857 410.266 196.535 413.299 200.04 413.299C200.996 413.299 201.807 413.071 202.523 412.682V411.005C201.818 411.566 201.012 411.905 200.04 411.905C197.357 411.905 195.952 409.355 194.463 406.65C192.846 403.711 191.169 400.678 187.664 400.678C184.159 400.678 182.481 403.717 180.864 406.65C179.376 409.349 177.97 411.905 175.287 411.905C172.604 411.905 171.199 409.355 169.71 406.65C168.094 403.711 166.416 400.678 162.911 400.678C159.406 400.678 157.734 403.717 156.112 406.65C154.623 409.349 153.217 411.905 150.534 411.905C147.851 411.905 146.446 409.355 144.957 406.65C143.341 403.711 141.663 400.678 138.158 400.678C134.653 400.678 132.981 403.717 131.359 406.65C129.87 409.349 128.465 411.905 125.782 411.905C123.099 411.905 121.693 409.355 120.204 406.65C118.588 403.711 116.91 400.678 113.405 400.678C109.9 400.678 108.228 403.717 106.606 406.65C105.117 409.349 103.712 411.905 101.029 411.905C98.3457 411.905 96.9403 409.355 95.4516 406.65C93.8351 403.711 92.1575 400.678 88.6523 400.678C85.1472 400.678 83.4751 403.717 81.8531 406.65C80.3644 409.349 78.9589 411.905 76.2759 411.905C73.5929 411.905 72.1874 409.355 70.6987 406.65C69.0822 403.711 67.4046 400.678 63.8995 400.678C60.3943 400.678 58.7223 403.717 57.1002 406.65C55.6115 409.349 54.2061 411.905 51.523 411.905C48.84 411.905 47.4347 409.355 45.946 406.65C44.3295 403.711 42.6519 400.678 39.1467 400.678C35.6415 400.678 33.9695 403.717 32.3475 406.65C30.8587 409.349 29.4533 411.905 26.7703 411.905C24.2483 411.905 22.854 409.649 21.4597 407.139V409.86C22.7318 411.782 24.2928 413.299 26.7703 413.299Z" fill="#232222"/>
<path d="M26.7703 435.163C30.2255 435.163 31.8863 432.147 33.4917 429.236C34.9915 426.509 36.4137 423.937 39.1467 423.937C41.8797 423.937 43.3018 426.509 44.8016 429.236C46.407 432.153 48.0678 435.163 51.523 435.163C54.9782 435.163 56.6392 432.147 58.2446 429.236C59.7444 426.514 61.1664 423.937 63.8995 423.937C66.6325 423.937 68.0547 426.509 69.5545 429.236C71.1599 432.153 72.8207 435.163 76.2759 435.163C79.7311 435.163 81.3921 432.147 82.9974 429.236C84.4973 426.509 85.9193 423.937 88.6523 423.937C91.3854 423.937 92.8074 426.509 94.3072 429.236C95.9126 432.153 97.5736 435.163 101.029 435.163C104.484 435.163 106.145 432.147 107.75 429.236C109.25 426.509 110.672 423.937 113.405 423.937C116.138 423.937 117.56 426.509 119.06 429.236C120.665 432.153 122.326 435.163 125.782 435.163C129.237 435.163 130.898 432.147 132.503 429.236C134.003 426.514 135.425 423.937 138.158 423.937C140.891 423.937 142.313 426.509 143.813 429.236C145.418 432.153 147.079 435.163 150.534 435.163C153.99 435.163 155.651 432.147 157.256 429.236C158.756 426.514 160.178 423.937 162.911 423.937C165.644 423.937 167.066 426.509 168.566 429.236C170.171 432.153 171.832 435.163 175.287 435.163C178.742 435.163 180.403 432.147 182.009 429.236C183.509 426.509 184.931 423.937 187.664 423.937C190.397 423.937 191.819 426.509 193.319 429.236C194.924 432.153 196.585 435.163 200.04 435.163C200.996 435.163 201.807 434.924 202.523 434.536V433.069C201.818 433.614 201.012 433.947 200.04 433.947C197.307 433.947 195.885 431.375 194.385 428.647C192.78 425.731 191.119 422.72 187.664 422.72C184.209 422.72 182.548 425.737 180.942 428.647C179.442 431.375 178.02 433.947 175.287 433.947C172.554 433.947 171.132 431.375 169.632 428.647C168.027 425.731 166.366 422.72 162.911 422.72C159.456 422.72 157.795 425.737 156.189 428.647C154.69 431.375 153.267 433.947 150.534 433.947C147.801 433.947 146.379 431.375 144.879 428.647C143.274 425.731 141.613 422.72 138.158 422.72C134.703 422.72 133.042 425.737 131.437 428.647C129.937 431.375 128.515 433.947 125.782 433.947C123.049 433.947 121.632 431.375 120.127 428.647C118.521 425.731 116.86 422.72 113.405 422.72C109.95 422.72 108.289 425.737 106.684 428.647C105.184 431.375 103.762 433.947 101.029 433.947C98.2957 433.947 96.8737 431.375 95.3739 428.647C93.7685 425.731 92.1075 422.72 88.6523 422.72C85.1972 422.72 83.5362 425.737 81.9308 428.647C80.431 431.369 79.0089 433.947 76.2759 433.947C73.5429 433.947 72.1208 431.375 70.621 428.647C69.0156 425.731 67.3546 422.72 63.8995 422.72C60.4443 422.72 58.7834 425.737 57.1781 428.647C55.6782 431.375 54.2561 433.947 51.523 433.947C48.79 433.947 47.368 431.375 45.8681 428.647C44.2627 425.731 42.6019 422.72 39.1467 422.72C35.6915 422.72 34.0306 425.737 32.4252 428.647C30.9253 431.369 29.5033 433.947 26.7703 433.947C24.2428 433.947 22.8429 431.753 21.4597 429.27V431.653C22.7374 433.608 24.2872 435.163 26.7703 435.163Z" fill="#232222"/>
<path d="M26.7703 457.022C30.1755 457.022 31.8197 454.027 33.414 451.139C34.9305 448.389 36.3581 445.795 39.1467 445.795C41.9353 445.795 43.3628 448.389 44.8793 451.139C46.4736 454.033 48.1234 457.022 51.523 457.022C54.9226 457.022 56.5726 454.027 58.1668 451.139C59.6833 448.389 61.1109 445.795 63.8995 445.795C66.688 445.795 68.1157 448.389 69.6322 451.139C71.2265 454.033 72.8763 457.022 76.2759 457.022C79.6755 457.022 81.3253 454.027 82.9196 451.139C84.4361 448.389 85.8637 445.795 88.6523 445.795C91.4409 445.795 92.8686 448.389 94.3851 451.139C95.9793 454.033 97.6291 457.022 101.029 457.022C104.428 457.022 106.078 454.027 107.672 451.139C109.189 448.389 110.617 445.795 113.405 445.795C116.194 445.795 117.621 448.389 119.138 451.139C120.732 454.033 122.382 457.022 125.782 457.022C129.181 457.022 130.831 454.027 132.425 451.139C133.942 448.389 135.369 445.795 138.158 445.795C140.947 445.795 142.374 448.389 143.891 451.139C145.485 454.033 147.135 457.022 150.534 457.022C153.934 457.022 155.584 454.027 157.178 451.139C158.695 448.389 160.122 445.795 162.911 445.795C165.699 445.795 167.127 448.389 168.644 451.139C170.238 454.033 171.888 457.022 175.293 457.022C178.698 457.022 180.342 454.027 181.936 451.139C183.453 448.389 184.881 445.795 187.669 445.795C190.458 445.795 191.885 448.389 193.402 451.139C194.996 454.033 196.646 457.022 200.051 457.022C201.007 457.022 201.818 456.777 202.534 456.377V455.122C201.829 455.65 201.023 455.977 200.051 455.977C197.263 455.977 195.835 453.383 194.318 450.633C192.724 447.739 191.074 444.751 187.669 444.751C184.264 444.751 182.62 447.739 181.026 450.633C179.509 453.383 178.081 455.977 175.293 455.977C172.504 455.977 171.077 453.383 169.56 450.633C167.966 447.739 166.316 444.751 162.911 444.751C159.506 444.751 157.861 447.739 156.267 450.633C154.751 453.383 153.323 455.977 150.534 455.977C147.746 455.977 146.318 453.383 144.802 450.633C143.207 447.739 141.558 444.751 138.158 444.751C134.758 444.751 133.109 447.739 131.514 450.633C129.998 453.383 128.57 455.977 125.782 455.977C122.993 455.977 121.565 453.383 120.049 450.633C118.455 447.739 116.805 444.751 113.405 444.751C110.006 444.751 108.356 447.739 106.761 450.633C105.245 453.383 103.817 455.977 101.029 455.977C98.2402 455.977 96.8125 453.383 95.296 450.633C93.7017 447.739 92.0519 444.751 88.6523 444.751C85.2527 444.751 83.6029 447.739 82.0086 450.633C80.4921 453.383 79.0645 455.977 76.2759 455.977C73.4873 455.977 72.0596 453.383 70.5431 450.633C68.9489 447.739 67.2991 444.751 63.8995 444.751C60.4998 444.751 58.85 447.739 57.2558 450.633C55.7393 453.383 54.3116 455.977 51.523 455.977C48.7344 455.977 47.3069 453.383 45.7904 450.633C44.1961 447.739 42.5463 444.751 39.1467 444.751C35.7471 444.751 34.0972 447.739 32.5029 450.633C30.9864 453.383 29.5589 455.977 26.7703 455.977C24.2428 455.977 22.8318 453.839 21.4597 451.389V453.433C22.7374 455.422 24.2872 457.022 26.7703 457.022Z" fill="#232222"/>
</svg>
